<svg xmlns="http://www.w3.org/2000/svg" height="800" width="1200" viewBox="-44.7 -9.190325 387.4 55.14195"><path d="M131.3728 20.5825l-2.8334 10.4134c-.5952.0566-1.344.1439-2.5067.1439-5.5617 0-4.9423-1.6738-2.5973-10.7481 2.442-9.4333 3.8603-11.154 7.3309-11.154 3.3412 0 3.3687 2.2512 2.518 5.099h8.4775c1.3747-5.3157.4577-10.0283-9.4559-10.0283-11.0392 0-14.0375 2.3272-17.5955 16.0833-3.312 12.81-2.2237 16.2079 9.7083 16.2079 5.6587 0 8.0295-.4173 11.4742-1.0431l3.9913-14.974h-8.5114zm20.2224 10.2712c-1.1045 0-1.4927-.3347-1.2824-1.229l1.9229-7.5331h11.3416l1.2792-4.9423h-11.3448l1.2873-5.0231c.3396-1.3132 1.2744-2.429 3.0986-2.429h9.084l1.2792-4.9472h-13.1982c-5.4727 0-7.119.9784-9.249 9.215l-3.9185 15.0629c-1.2032 5.0554.2976 7.2549 4.428 7.2549h11.3885c2.2415 0 3.6873-1.192 4.3827-3.0194l.9348-2.4097h-11.4338zm129.7392 0c-1.1045 0-1.4927-.3347-1.2824-1.229l1.9228-7.5331h11.3433l1.2792-4.9423h-11.3432l1.2873-5.0231c.3412-1.3132 1.2728-2.429 3.0986-2.429h9.0808L298 4.75h-13.195c-5.4792 0-7.1207.9784-9.2522 9.215l-3.9153 15.0629c-1.2032 5.0554.2976 7.2549 4.4264 7.2549h11.3917c2.2415 0 3.6825-1.192 4.3795-3.0194l.9348-2.4097h-11.4355zm-186.8067.0434H92.199l5.4824-21.1938c.7035-.0032.9671-.0308 2.7137-.0308 4.9229 0 4.9164 1.6286 2.5666 10.7093-2.3725 9.1907-3.752 10.5153-8.4339 10.5153m7.276-26.1458H90.449l-7.9083 30.585c-.1358.524.1715.9461.6825.9461h10.1125c12.7018 0 14.8414-2.4274 18.3265-15.9006 3.0274-11.7055 1.1612-15.6305-9.8586-15.6305m158.829-.0613c-6.54 0-9.5789.1407-11.3659.0614l-7.9131 30.585c-.1375.524.1698.9461.6809.9461h7.588l6.8732-26.5791c.7003-.0032 1.766-.0615 2.8415-.0615 3.6857 0 4.1725 1.3116 3.1989 5.0684l-5.3369 20.6262c-.1342.524.1715.946.6825.946h7.5864l5.5795-21.5722c1.931-7.4716-1.352-10.0203-10.415-10.0203m-65.707.0608L193.614 9.874h8.429c.084 0 .0857.1068.008.165-1.3456 1.0092-2.1671 2.4566-2.5569 3.9655l-5.5293 21.3328c-.1342.5224.173.9461.6841.9461h8.1428l6.844-26.4094h4.1741c2.3418 0 3.7666-.9816 4.559-3.0274l.7973-2.096h-24.2406zM76.8101 36.2826l7.9115-30.585c.1358-.5224-.1698-.9477-.6809-.9477H76.021l-7.9115 30.5866c-.1359.524.1698.9461.6825.9461zm148.38-4.8588c-3.6388 0-4.1805-1.3277-1.6415-11.1573 2.117-8.1783 4.1337-11.0295 7.381-11.0295 3.6388 0 4.0415 1.9569 1.6933 11.0295-2.3223 8.9886-4.6188 11.1573-7.4328 11.1573m7.009-27.108c-9.548 0-13.6898 1.6997-17.4434 16.203-3.2457 12.5659-.642 16.2014 9.0646 16.2014 9.878 0 13.782-2.0312 17.4434-16.2014 2.6523-10.2564 2.1121-16.203-9.0645-16.203"/><path d="M4.9618 20.7523l4.939-17.3221c.4788-1.7806 2.4485-3.4059 4.4377-3.4059h15.105c.2539 0 .3331.33.139.4642-7.8548 5.374-17.327 13.3502-24.192 20.4886-.1796.1893-.4998.0389-.4287-.2248" fill="red"/><path d="M16.8952 31.1537l4.8873-17.0957c.0728-.2588-.2054-.448-.4124-.2685C14.175 19.9738 5.4986 29.011.0696 35.8437c-.1375.1747-.0663.4383.1698.4383h21.1582c8.9223 0 13.8047-2.7639 15.5756-9.367 1.4425-5.3806-1.378-9.0484-5.877-9.9945-.081-.0178-.152-.1682 0-.194 3.8069-.6518 7.6462-2.185 9.016-7.737C41.5935 2.98 36.999-.3142 31.7139.0238l-8.0862 28.3128c-.4366 1.5315-2.0749 2.8172-3.6306 2.8172h-3.1019zm45.9751-7.515c-.283-.9397-.5887-1.6254-1.0366-2.185-.0583-.0727-.0712-.1698.034-.2021 3.6241-1.1175 5.9966-3.4075 7.0009-7.2873 1.3261-5.1282-1.9083-9.2133-10.0753-9.2133h-12.139l-7.913 30.585c-.136.524.1697.9461.6824.9461h7.5864L53.8834 9.703c.7342-.0032 1.436-.0307 3.1827-.0307 2.9239 0 4.0042 1.8048 3.3751 4.2388-.8296 3.2086-3.317 5.0101-6.2716 5.0101H53.052l3.1568 15.2602c.3752 1.4879 1.124 2.1008 2.8318 2.1008h6.7746l-2.945-12.6435zm103.2428 1.9621c-3.2118 7.6818.9768 11.1605 9.5061 11.1605 7.787 0 12.1066-1.8517 13.96-9.0112.6323-2.4485.2263-5.0894-1.2777-6.7228-2.9126-3.165-8.5115-3.7569-10.4796-5.5924-1.0011-.9332-.993-2.2383-.702-3.3622.5338-2.0636 1.9197-3.1876 4.166-3.1876 3.5192 0 3.6081 2.1655 2.7445 4.7353h7.5509c1.7757-5.366-.5515-9.5724-9.4463-9.5724-7.483 0-11.5227 2.9385-12.9734 8.5632-.3995 1.5428-.2523 4.0609.6712 5.6393 2.0538 3.519 7.499 3.9574 10.512 6.0517 1.3083.9105 1.352 2.1396 1.001 3.49-.6776 2.6263-1.9973 3.878-4.622 3.878-2.5245 0-4.0399-1.4684-2.5957-6.0694h-8.015z"/></svg>