<svg xmlns="http://www.w3.org/2000/svg" height="800" width="1200" viewBox="-44.470725 -14.2275 385.41295 85.365"><path d="M15.61 6.5275c-.2625-.885-2.53-5.4175-2.53-5.4175l23.535.01c7.8825 0 17.54.6975 22.32 6.14 3.8475 4.38 4.19 11.275 1.035 21.075C51.825 53.6825 34.0625 55.78 15.5475 55.78H0zM20.0975 49.09c6.5625-.0326 12.2025-1.095 15.625-3.34 4.365-2.8775 7.3825-7.8775 10.405-17.2625 2.68-8.35 3.8225-14.405.9475-17.6675-1.91-2.1875-6.505-3.2425-12.4125-3.2425-.2675 0-.5325 0-.78.002 0 0-2.515-.0474-5.025.26L16.46 46.597s-.66 2.4925 2.315 2.4925m65.0825.003l24.8875.025-2.1425 6.665H65.165L80.7725 6.53c-.26-.8875-2.4825-5.4275-2.4825-5.4275h44.05l-2.145 6.665H94.0225L88.8375 23.96h18.2675l-2.145 6.6825H86.705L81.66 46.46s-.6875 2.5675 2.1975 2.6325M126.495 55.78l12.525-40.235 15.1275 40.235H165.88L183.4525 1.1H173.98l-11.9925 38.28-.185-.445L147.715 1.1h-17.9475s2.225 4.54 2.485 5.4275l-15.61 49.2525M229.745 10.2425c-2.1625-.99-7.29-3.22-14.615-3.305-2.105-.016-7.1825.58-8.89 5.91-1.445 4.4875 3.3925 6.9025 9.0025 9.69 7.185 3.58 15.3225 7.6425 12.1675 17.4575-3.3975 10.5725-14.4375 16.8675-30.2775 16.63-11.5425-.17-17.1775-2.3225-17.1775-2.3225l3.2225-10.0675 2.335 1.335c2.305 1.315 8.4075 4.385 15.2375 4.385 2.285 0 5.5125-.415 8.11-2.025 1.8575-1.15 3.18-3.035 3.9425-5.41 1.5625-4.8675-3.41-7.3875-9.175-10.3125-7.0175-3.555-14.9775-7.585-11.895-17.1325 1.255-3.94 3.935-7.335 7.73-9.8275 4.95-3.255 10.56-4.9175 19.555-4.975 6.3175-.0324 12.455.8025 15.03 1.4775l.9575.27-.3575 1.1675-1.8275 5.675-.78 2.4375m7.2675 17.3525c3.595-11.18 8.49-18.5075 15.43-23.0625C260.465 1.83 267.4575 0 276.12 0c8.265 0 13.87 1.8025 17.1275 5.4975 4.0575 4.63 4.2825 11.98.69 23.155-3.8975 12.1225-11.885 28.2575-36.12 28.2575-8.5975 0-14.395-1.8425-17.725-5.6375-4.0275-4.5775-4.2725-11.7775-.785-22.62m20.6775 21.515c3.425 0 6.34-.755 8.825-2.465 5.6875-3.8675 8.8825-11.875 11.195-19.05 2.515-7.845 4.38-15.6325 1.0025-19.4875-1.44-1.63-3.75-2.4325-7.0625-2.4325-12.005 0-17.045 10.5325-20.6975 21.92-1.9725 6.1375-4.185 14.7925-.5225 18.96 1.51 1.7175 3.8825 2.555 7.26 2.555" fill="#e6232a"/></svg>