<?xml version="1.0" encoding="utf-8"?>
<!DOCTYPE svg PUBLIC "-//W3C//DTD SVG 1.1//EN" "http://www.w3.org/Graphics/SVG/1.1/DTD/svg11.dtd">
<svg version="1.1" id="Ebene_1" xmlns="http://www.w3.org/2000/svg" xmlns:xlink="http://www.w3.org/1999/xlink" x="0px" y="0px"
	 width="1408.82px" height="711.5px" viewBox="0 0 1408.82 711.5" enable-background="new 0 0 1408.82 711.5" xml:space="preserve">
<path fill="#E52629" d="M2.055,278.333v180.552h412.443V278.333v-25.684h80.429c51.336,0,136.895,8.556,214.784,25.684
	c90.701,19.672,171.152,52.171,171.152,98.403c0,38.492-59.898,82.148-61.615,82.148h589.572c0,0-14.551-65.045-45.361-107.815
	c-19.674-28.221-44.48-53.042-82.133-72.708c-32.529-17.133-74.459-30.813-131.783-40.237V228.7
	c26.533,0,97.549-25.661,159.152-66.715c82.99-55.655,98.385-159.147,98.385-159.147H823.504c0,0,48.793,40.208,48.793,76.986
	c0,77.014-275.513,135.203-375.643,135.203h-82.133V2.838H2.055V278.333L2.055,278.333z"/>
<polygon fill="#E52629" points="5.604,621.74 5.604,492.754 75.555,492.754 75.555,562.313 137.434,492.754 219.514,492.754 
	141.476,573.629 172.613,621.752 228.01,707.068 143.91,707.068 92.149,621.752 75.567,639.133 75.567,707.068 5.615,707.068 
	5.615,621.74 "/>
<path fill="#E52629" d="M245.415,621.74c33.152-13.338,81.687-5.664,81.687-25.078c0-11.316-13.744-12.539-20.22-12.539
	c-8.889,0-20.218,1.611-21.828,14.959h-59.446c0-33.15,23.45-52.164,84.923-52.164c73.989,0,78.442,27.088,78.442,64.293v10.518
	V684.4c0,8.896,0.411,13.338,8.497,19.813v2.82h-64.293l-2.827-16.58c-17.392,16.58-35.584,21.023-58.64,21.023
	c-29.521,0-55.804-14.549-55.804-46.889C215.882,640.756,228.833,628.615,245.415,621.74L245.415,621.74z"/>
<polygon fill="#E52629" points="405.555,621.74 382.098,551.371 442.338,551.371 459.73,621.74 466.193,647.617 473.069,621.74 
	490.873,551.371 543.449,551.371 560.818,621.74 567.293,647.617 573.768,621.74 591.96,551.371 650.601,551.371 627.943,621.74 
	600.856,707.059 540.605,707.059 517.948,621.74 516.327,615.666 514.716,621.74 494.092,707.059 433.441,707.059 405.555,621.74 
	"/>
<path fill="#E52629" d="M661.906,621.74c32.764-13.338,81.276-5.664,81.276-25.078c0-11.316-13.328-12.539-20.215-12.539
	c-8.484,0-20.224,1.611-21.435,14.959h-59.851c0-33.15,23.868-52.164,85.329-52.164c73.602,0,78.043,27.088,78.043,64.293v10.518
	V684.4c0,8.896,0.4,13.338,8.496,19.813v2.82h-63.906l-3.23-16.58c-17.381,16.58-35.186,21.023-58.641,21.023
	c-29.109,0-55.409-14.549-55.409-46.889C632.386,640.756,644.937,628.615,661.906,621.74L661.906,621.74z"/>
<path fill="#E52629" d="M822.457,621.74c-4.453-6.074-6.873-13.75-6.873-23.469c0-40.025,41.26-51.354,74-51.354
	c33.963,0,73.588,7.686,77.23,48.934h-56.221c-0.799-5.264-2.818-8.496-6.063-11.316c-3.23-2.834-7.686-4.043-12.527-4.043
	c-10.506,0-17.379,3.643-17.379,11.328c0,15.361,48.922,12.539,77.643,29.92c12.127,7.273,20.623,18.203,20.623,35.584
	c0,32.352-26.688,54.176-83.719,54.176c-35.584,0-75.211-10.918-78.441-52.953h59.027c0,6.463,2.422,11.305,6.463,14.561
	c4.043,2.809,9.297,4.441,15.359,4.441c9.297,0,19.414-2.832,19.414-13.76C911.018,642.777,843.893,653.281,822.457,621.74
	L822.457,621.74z"/>
<path fill="#E52629" d="M1004.844,621.74c32.752-13.338,81.273-5.664,81.273-25.078c0-11.316-13.76-12.539-20.213-12.539
	c-8.506,0-20.236,1.611-21.832,14.959h-59.443c0-33.15,23.445-52.164,85.32-52.164c73.6,0,78.041,27.088,78.041,64.293v10.518V684.4
	c0,8.896,0.412,13.338,8.498,19.813v2.82h-64.295l-2.832-16.58c-17.393,16.58-35.184,21.023-58.641,21.023
	c-29.521,0-55.809-14.549-55.809-46.889C974.9,640.756,987.852,628.615,1004.844,621.74L1004.844,621.74z"/>
<polygon fill="#E52629" points="1160.119,621.74 1160.119,492.754 1221.99,492.754 1221.99,598.695 1261.617,551.383 
	1334.008,551.383 1276.168,611.633 1283.053,621.752 1341.695,707.068 1267.27,707.068 1233.707,651.672 1221.967,663.4 
	1221.967,707.068 1160.107,707.068 1160.107,621.74 "/>
<polygon fill="#E52629" points="1345.313,551.383 1345.313,621.752 1345.313,707.068 1407.186,707.068 1407.186,621.752 
	1407.186,551.383 1345.313,551.383 "/>
<polygon fill="#E52629" points="1345.313,487.09 1345.313,531.17 1407.186,531.17 1407.186,487.09 1345.313,487.09 "/>
<path fill="#FFFFFF" d="M1086.094,638.309c-20.211,9.721-46.889,4.855-46.889,25.08c0,7.688,7.264,12.938,19.414,12.938
	C1080.455,676.338,1087.729,659.346,1086.094,638.309L1086.094,638.309z"/>
<path fill="#FFFFFF" d="M743.182,638.309c-20.215,9.721-46.89,4.855-46.89,25.08c0,7.688,7.263,12.938,19.814,12.938
	C737.539,676.338,744.814,659.346,743.182,638.309L743.182,638.309z"/>
<path fill="#FFFFFF" d="M327.089,638.309c-20.219,9.721-46.913,4.855-46.913,25.08c0,7.688,7.286,12.938,19.414,12.938
	C321.43,676.338,328.71,659.346,327.089,638.309L327.089,638.309z"/>
</svg>
