<svg xmlns="http://www.w3.org/2000/svg" height="800" width="1200" viewBox="-9.99693 -3.3073 86.64006 19.8438"><defs><clipPath id="a" clipPathUnits="userSpaceOnUse"><path d="M0 875.905h694.488V0H0z"/></clipPath></defs><g clip-path="url(#a)" transform="matrix(.92727 0 0 -.92727 -63.9283 750.3763)" fill="#005bac"><path d="M113.3091 803.1894s.3151-.3234-.7052-2.688c-.0095-.017-.2678-.6017-.2678-.6017h-3.8642l1.4672 3.2897h-4.1953s.3145-.3234-.7047-2.688c-.0366-.0845-2.4603-5.5353-2.4603-5.5353h3.6988l1.3903 3.1235h3.863a7191.917 7191.917 0 01-1.3897-3.1235h3.7017l3.6621 8.2233zm-7.5231 6.0435l-3.3724-1.7261-.658 1.726-2.4674-4.8514 2.4674 1.3165 2.5088-1.6877-.9044 2.4266zm28.124-6.0435s.305-.3506-.7183-2.7145l-.8453-1.9744-2.6311 4.6889h-3.535s.3032-.3506-.7183-2.7145l-2.4502-5.5088h3.7005l1.9407 4.3572 2.4609-4.3572h3.3293l3.6615 8.2233z"/><path d="M101.674 804.5058l-2.5075-1.3164s.3198-.357-.7189-2.7145l-2.4479-5.5088h3.989l3.6603 8.2233zm17.9275-1.3164s.3032-.3506-.7183-2.7145l-2.449-5.5088h3.9901l3.6603 8.2233zm-35.5265 0h-5.1399s-.0088-.3506-3.1655-2.7145l-1.0102-.756 1.547 3.4705h-4.1965s.3033-.3506-.7176-2.7145l-2.4497-5.5088h3.7017l1.4908 3.3434 2.9918-3.3434h4.07l-3.2903 3.658zm21.012 3.3719l-.4103-.4936.5745-1.5216h32.8518l2.7133 2.0152zm-33.6763 0c.312-.6266.5592-1.2946.6573-2.0152h26.069l1.0292 2.0152zm24.7982-5.1823l.8187 1.8107H85.9255s.3168-.3234-.7046-2.688l-2.4615-5.5353h10.7728l.8217 1.8088h-7.0883l.5852 1.3153h6.8726l.8193 1.8089H88.657l.658 1.4808z"/></g></svg>