<svg xmlns="http://www.w3.org/2000/svg" height="800" width="1200" version="1.0" viewBox="-99.735945 -23.6797 864.37819 142.0782"><path d="M0 0l47.3438 47.3438.1874.1562-.1874.25L.3124 94.7188H8.625L55.8125 47.5 8.3125.0312zm37.5625 0l-8.3438.0313 47.375 47.3124.125.1563-.125.25-47.0312 46.9688h8.3438L85.0936 47.5zm6.3125 0l47.3125 47.3438.1875.1562-.1875.25-46.9688 46.9688h8.3126L99.6874 47.5 52.1875 0zm14.5938 0l47.3437 47.3438.1563.1562-.1563.25-47 46.9688h8.3125c.155-.1463 47.375-47.375 47.375-47.375L161.8438 0H153.5l-43.1875 43.1563-.1563.1874-.1874-.1874-2.7813-2.75-.2188-.1876.2188-.1874L147.2188 0h-8.3438l-36.0313 36.0625-.1874-.1875-2.7813-2.75-.1875-.2188L132.5938.0313h-8.3125L95.75 28.5626l-.2188.2188-.1874-.2188-2.7813-2.7813-.1875-.1562.1875-.1875L118.0313.0312 109.6874 0l-21.25 21.2813-.2188.1562-.1874-.1875L85.25 18.5l-.1875-.2188.1875-.1874L103.3438.0312h-8.2813l-13.9688 13.875-.1562.2188-.1875-.2188L66.8125.0313zM14.625.0313l47.3125 47.3124.2188.1563-.2188.25L15 94.7188h8.2813L70.4686 47.5 22.9376.0312z" fill="#de2027"/><path d="M243.7813 11.2188c-20.1688 0-36.5625 16.4187-36.5625 36.625 0 20.1662 16.3937 36.5625 36.5625 36.5624 20.1775 0 36.5624-16.3962 36.5625-36.5624 0-20.2063-16.35-36.625-36.5625-36.625zm74.3125 0l-22.125 30.6562V11.25h-12.5313v71.9063h12.5313v-29.625L317 83.1563h15.75L306 47.9063l27.8125-36.6876zm40.5937 0c-20.1975 0-36.5938 16.4125-36.5938 36.5624-.0175 20.2226 16.3963 36.625 36.5938 36.625 20.2037 0 36.6125-16.4024 36.5938-36.625 0-20.15-16.4163-36.5624-36.5938-36.5624zm-198.9063.625l22.6563 45.0624v26.875h11.8438v-26.875l22.6562-45.0624H203.5L188.375 42.875l-15.1563-31.0313zm238.625 0v71.9374h12.8125V54.6876h25.8125v29.0938h12.7813V11.8436h-12.7813v30.5h-25.8125v-30.5zm80.75 0l-26.5625 71.9374H466l6.6563-18.375H498.5l6.5625 18.375h13.4688l-26.5625-71.9374zm42.0625 0v71.9374h12.8125L534.25 36.75l18 47.0313h11.9375L582.1563 36.75l.2187 47.0313h12.8438V11.8436h-15.8126L558.25 67 537 11.8437h-12.0938zm104.2813 0l-26.5625 71.9374h13.4688L619 65.4063h25.8438l6.625 18.375h13.4375L638.375 11.8439h-12.3125zM358.7187 23.1563c13.6113 0 24.5938 11.05 24.5938 24.625.0188 13.6212-11.0225 24.6562-24.625 24.6562-13.585 0-24.6563-11.035-24.6563-24.6563 0-13.575 11.0838-24.625 24.6875-24.625zm-114.9375.0312c13.61 0 24.625 11.0437 24.625 24.6563 0 13.565-11.015 24.625-24.625 24.625-13.575 0-24.625-11.06-24.625-24.625 0-13.6126 11.05-24.6563 24.625-24.6563zm388.1563 7.625l9.0313 24.5H622.875zm-146.4063.0313l9.0625 24.4687h-18.0625z" fill="#231f20"/></svg>